<svg xmlns="http://www.w3.org/2000/svg" viewBox="0 0 64 64">
  <defs>
    <linearGradient id="g" x1="0" y1="0" x2="1" y2="1">
      <stop offset="0%" stop-color="#3B82F6"/>
      <stop offset="100%" stop-color="#6366F1"/>
    </linearGradient>
    <radialGradient id="glow" cx="50%" cy="50%" r="50%">
      <stop offset="0%" stop-color="#3B82F6" stop-opacity="0.7"/>
      <stop offset="100%" stop-color="#3B82F6" stop-opacity="0"/>
    </radialGradient>
  </defs>
  <rect width="64" height="64" rx="14" fill="#050505"/>
  <circle cx="32" cy="32" r="22" fill="url(#glow)"/>
  <g stroke="url(#g)" stroke-width="2" fill="none" stroke-linecap="round">
    <path d="M16 22 L32 14 L48 22"/>
    <path d="M16 42 L32 50 L48 42"/>
    <path d="M16 22 L16 42"/>
    <path d="M48 22 L48 42"/>
    <path d="M16 22 L48 42"/>
    <path d="M48 22 L16 42"/>
  </g>
  <g fill="#fff">
    <circle cx="32" cy="14" r="3"/>
    <circle cx="32" cy="50" r="3"/>
    <circle cx="16" cy="22" r="3"/>
    <circle cx="48" cy="22" r="3"/>
    <circle cx="16" cy="42" r="3"/>
    <circle cx="48" cy="42" r="3"/>
    <circle cx="32" cy="32" r="4" fill="#3B82F6"/>
  </g>
</svg>
